<?xml version="1.0" encoding="UTF-8"?>
<svg id="c" data-name="Diseño tecnologia" xmlns="http://www.w3.org/2000/svg" viewBox="0 0 108.6546 120">
  <defs>
    <style>
      .h {
        fill: #e30613;
      }
    </style>
  </defs>
  <g>
    <path class="h" d="M73.6353,67.8221c0-1.4408-1.168-2.6088-2.6088-2.6088s-2.6088,1.1679-2.6088,2.6088v14.6484l-3.4044-3.397c-1.0109-.9764-2.6137-.9764-3.6246,0-1.0364,1.001-1.0651,2.6523-.0642,3.6888l7.8546,7.8546c.1211.1215.2544.2306.3974.3264.0282.0188.0602.0306.089.0483.1154.071.2327.1391.3591.1918.0421.0175.0878.0252.1308.0406.1163.0414.2324.0835.3557.1082.1684.034.3409.0519.5152.0519.6973.004,1.3669-.2713,1.86-.7643l7.8575-7.8575c1.0187-1.0221,1.0156-2.6766-.0065-3.6953-1.0221-1.0187-2.6766-1.0156-3.6953.0065l-3.407,3.3981v-14.6496Z"/>
    <path class="h" d="M80.2067,94.0138v2.6322h-18.3577v-2.6322c0-1.4408-1.168-2.6087-2.6088-2.6087s-2.6088,1.1679-2.6088,2.6087v5.241c0,1.4408,1.168,2.6087,2.6088,2.6087h23.5751c1.4408,0,2.6088-1.1679,2.6088-2.6087v-5.241c0-1.4408-1.1679-2.6087-2.6088-2.6087s-2.6087,1.1679-2.6087,2.6087Z"/>
  </g>
  <g>
    <path class="h" d="M76.6482,8.164H19.2153v8.5589H6.9942v61.0231h12.2211v36.1077h81.3607V31.9889l-23.9278-23.8249ZM24.5543,56.3487l.7612-.7612,2.3661-2.366c.2572-.2572.3394-.7509.1749-1.0801l-.6481-1.5534c-.1131-.3497-.5144-.6378-.895-.6378h-4.4029c-.3806,0-.6789-.3086-.6789-.6789v-4.0737c0-.3703.2983-.679.6789-.679h4.4029c.3806,0,.7818-.288.895-.6378l.6481-1.5533c.1646-.3292.0823-.823-.1749-1.0802l-2.3661-2.366-.7612-.7612c-.2572-.2572-.2572-.6892,0-.9567l.7612-.7612,2.1191-2.1088c.2675-.2675.6996-.2675.9568,0l3.117,3.117c.2675.2675.7612.3395,1.0904.1749l1.5534-.6378c.3498-.1234.6378-.5247.6378-.895v-4.4131c0-.3703.3086-.679.679-.679h4.0634c.3806,0,.679.3087.679.679v4.4131c0,.3703.288.7715.6481.895l1.5431.6378c.3394.1646.823.0926,1.0904-.1749l3.117-3.117c.2675-.2675.6995-.2675.9567,0l2.8804,2.8701c.2674.2675.2674.6995,0,.9567l-3.117,3.1273c-.2675.2572-.3498.751-.1749,1.0802l.6378,1.5533c.1234.3498.5247.6378.895.6378h4.4131c.3704,0,.679.3087.679.679v4.0737c0,.3703-.3086.6789-.679.6789h-4.4131c-.3703,0-.7715.2881-.895.6378l-.6378,1.5534c-.1749.3292-.0926.823.1749,1.0801l3.117,3.1273c.2674.2572.2674.6893,0,.9568l-2.8804,2.8701c-.2572.2675-.6892.2675-.9567,0l-3.117-3.117c-.2675-.2674-.751-.3394-1.0904-.1749l-1.5431.6378c-.3601.1234-.6481.5247-.6481.895v4.4132c0,.3703-.2984.6789-.679.6789h-4.0634c-.3704,0-.679-.3086-.679-.6789v-4.4132c0-.3703-.288-.7715-.6378-.895l-1.5534-.6378c-.3292-.1646-.823-.0925-1.0904.1749l-3.117,3.117c-.2572.2675-.6893.2675-.9568,0l-2.1191-2.1088-.7612-.7612c-.2572-.2675-.2572-.6996,0-.9568ZM94.4758,107.7534H25.3155v-36.1077h36.5912V22.8231H25.3155v-8.5589h48.8123v20.2553h20.3479v73.2339Z"/>
    <path class="h" d="M37.5058,52.6557c2.9935,0,5.4213-2.4277,5.4213-5.4213s-2.4278-5.4213-5.4213-5.4213c-3.0038,0-5.4316,2.4277-5.4316,5.4213s2.4278,5.4213,5.4316,5.4213Z"/>
  </g>
</svg>