<?xml version="1.0" encoding="UTF-8"?>
<svg id="Capa_1" xmlns="http://www.w3.org/2000/svg" version="1.1" viewBox="0 0 1000 1000">
  <!-- Generator: Adobe Illustrator 29.8.2, SVG Export Plug-In . SVG Version: 2.1.1 Build 3)  -->
  <path d="M478.48,67.12c272.37-12.25,488.57,222.19,451.3,493.2-26.47,192.48-182.31,345.79-375.1,369.46C268.17,964.96,28.79,717.85,72.66,432.45,103.45,232.09,275.3,76.26,478.48,67.12ZM497.01,189.6c-249.42,3.19-394.07,287.52-247.07,490.75,129.47,178.99,400.42,168.1,515.1-20.47,126.2-207.51-26.45-473.37-268.03-470.28Z"/>
  <path d="M490.22,299.24c5.51-4.51,11.6-5.83,18.01-2.07,5.54,3.25,22.46,30.25,27.78,37.49,25.88,35.21,53.84,69.08,78.67,105.05,39.72,57.53,65.6,103.95,32.27,173.79-58.49,122.55-240.65,119.16-294.95-4.58-28.89-65.83-5.38-110.52,31.39-164.7,33.7-49.66,73.61-94.96,106.83-144.98Z"/>
</svg>