<?xml version="1.0" encoding="UTF-8"?>
<svg id="e" data-name="TEXTO" xmlns="http://www.w3.org/2000/svg" viewBox="0 0 100 100">
  <defs>
    <style>
      .h {
        fill: none;
      }
    </style>
  </defs>
  <path d="M56.2443,42.9764c-1.7682-2.9891-3.4101-5.4098-3.4942-5.515-.7788-1.1367-2.6944-1.1367-3.4732,0-.0632.1052-1.7261,2.5049-3.5153,5.5361-3.8521,6.5675-4.2941,9.1356-4.2941,10.5248,0,.3999.0211.7788.0842,1.1577v.0632q0,.0211.0211.0421c.6104,4.7151,4.652,8.2725,9.4303,8.2725,4.8204,0,8.8409-3.5785,9.4303-8.3146,0-.0211.0211-.0211.0211-.0421v-.1263c.0421-.3368.0842-.6736.0842-1.0314.0211-.8209.0211-3.2838-4.2941-10.5669ZM56.3074,54.0906c0,.0211-.0211.0211-.0211.0421-.2736,2.6944-2.547,4.7151-5.2624,4.7151-2.6944,0-4.9467-1.9997-5.2835-4.652v-.0421c-.0211-.1894-.0421-.421-.0421-.6315,0-.6104.3578-2.6733,3.7047-8.3778.5683-.9683,1.1156-1.8524,1.6208-2.6312.4841.7788,1.0314,1.6629,1.5998,2.6102s0,0,0,0c3.4521,5.8308,3.7258,7.9147,3.7258,8.3988,0,.1894-.0211.3578-.0421.5262,0,.0211.0211.0211,0,.0421Z"/>
  <path d="M78.4727,80.3522v-7.9779c0-.0211.0211-.0631.0421-.0842.1052-.3789.0631-.7578-.0421-1.1366v-9.2408c.0211-.1052.0421-.1895.0632-.2737.0631-.3578.0211-.6947-.0632-1.0314v-9.2198c.0421-.1263.0632-.2315.0843-.3578.042-.3158,0-.6316-.0843-.9473v-9.1987c.0211-.1263.0632-.2316.0632-.3579.0631-.3367.0211-.6525-.0632-.9682v-9.325c.0211-.0421.0421-.0843.0421-.1263.0842-.379.0421-.7368-.0421-1.0736v-10.1881c0-5.4939-17.1554-6.3149-27.3646-6.3149s-27.3435.821-27.3435,6.3149v10.0197c-.0421.1684-.1052.3367-.1052.5052,0,.2315.042.4632.1052.7157v9.3039c-.0421.1684-.1052.3367-.1052.5052,0,.2315.042.4632.1052.7157v9.3039c-.0421.1684-.1052.3367-.1052.5052,0,.2315.042.4632.1052.7157v9.3039c-.0421.1684-.1052.3367-.1052.5052,0,.2315.042.4632.1052.7157v9.3039c-.0421.1684-.1052.3367-.1052.5052,0,.1895.0631.3369.1052.5262v8.2725c0,.2737.0632.5262.1474.7579-.1474.2946-.2526.6104-.2526.9682,0,5.4939,17.1554,6.3149,27.3646,6.3149,4.0626,0,26.3541-1.0103,27.4909-5.4939.1474-.5684.0421-1.1366-.2106-1.6209.1054-.2526.1684-.5473.1684-.8419ZM72.0315,49.2618c0-.2737-.0211-.5473-.0631-.821-.1263-1.4103-.3999-2.8206-.821-4.1889,1.2419-.2526,2.2943-.5052,3.1575-.7367v4.1046l.0631-.0209-.0842,9.788v2.7786c-.9473.3369-2.7154.821-5.3466,1.3051.9051-1.4524,1.6207-3.0101,2.1259-4.6519.1474-.4632.3158-1.0946.4842-1.8104.2947-1.3261.5473-3.0101.5262-4.7573v-.2104c0-.2526-.0211-.5262-.0421-.7788ZM51.1292,16.74c11.0932,0,18.3763,1.1368,21.6181,2.105-3.2417.9683-10.5248,2.105-21.6181,2.105s-18.3763-1.1366-21.6181-2.105c3.2417-.9682,10.5248-2.105,21.6181-2.105ZM27.9745,22.7181c5.7255,2.0418,16.1031,2.4417,23.1547,2.4417s17.4292-.3999,23.1547-2.4417v4.9888h.0211v5.7044h-.0211v5.6834c-.821.2947-2.3365.7368-4.8203,1.1998-1.1368-2.0839-2.5892-3.9152-4.3573-5.515-2.2102-1.9155-5.7467-3.6626-5.7467-3.6626-4.273-1.8524-9.1355-2.2102-13.6612-1.0314-.042,0-.0842.0211-.1263.0211-1.0525.2737-2.0839.6525-3.0942,1.0945h-.0211c-2.989,1.4735-5.6834,3.768-5.6834,3.768-1.7472,1.6207-3.2205,3.5153-4.3362,5.6202-2.6523-.5052-3.9152-.9894-4.4625-1.2629v-16.6082ZM67.8637,50.4195c0,.6947-.0421,1.4103-.1474,2.2102-.5052,3.9153-2.3997,7.5148-5.3046,10.1881-3.0942,2.8627-7.1568,4.4415-11.3878,4.4415-4.1047,0-8.0621-1.4944-11.1563-4.231-2.9681-2.6312-4.9257-6.2096-5.4941-10.1249-.1263-.7788-.1894-1.5998-.1894-2.4838,0-2.3365.463-4.5677,1.3892-6.6727,1.5787-3.7258,4.4836-6.7359,8.1673-8.504,2.2945-1.0946,4.7362-1.663,7.2832-1.663,2.5049,0,4.9046.5262,7.1359,1.5998,3.6837,1.705,6.5884,4.6731,8.2093,8.3357q0,.0211.0211.042c.9683,2.084,1.4735,4.4625,1.4735,6.8622ZM27.9745,47.7041h.0211v-3.8732c.7788.2526,1.705.4842,2.8417.7157-.5473,1.8735-.8419,3.8521-.8419,5.8517v.1474q-.0211,0-.0421-.0211c0,1.705.2737,3.3048.5473,4.4836,0,.0211,0,.0421.0211.0632.1263.5893.2946,1.1577.463,1.7261.0211.042.0421.1052.0421.1474.5683,1.705,1.3472,3.3468,2.3154,4.8625-3.0522-.5262-4.673-1.0736-5.3676-1.4314v-12.672ZM74.326,81.1941c-2.8418,1.0736-12.5667,2.9049-23.302,2.9049-13.7666,0-21.6812-1.7472-23.2599-2.7786-.0211-.042-.0421-.0631-.0421-.1052.1474-.2737.2526-.5893.2526-.9473v-15.3873c1.9787.6525,5.0098,1.2841,9.6619,1.7472,3.7678,3.1153,8.483,4.8414,13.3876,4.8414,5.0729,0,9.8934-1.8313,13.7034-5.1151,4.5045-.5684,7.5357-1.1788,9.5565-1.7892v5.557h.0842l-.0842,7.7884v2.4418c0,.2315.0632.463.1263.6736-.0211.0631-.0631.1263-.0842.1683Z"/>
  <path class="h" d="M72.0315,49.2618c-.0211-.2737-.0421-.5262-.0842-.7999l.0211-.0211c.042.2737.0631.5473.0631.821Z"/>
</svg>