<?xml version="1.0" encoding="UTF-8"?>
<svg id="c" data-name="Capa 4" xmlns="http://www.w3.org/2000/svg" xmlns:xlink="http://www.w3.org/1999/xlink" viewBox="0 0 595.28 595.276">
  <defs>
    <style>
      .e {
        fill: #e30613;
      }

      .f {
        clip-path: url(#d);
      }
    </style>
    <clipPath id="d">
      <path class="e" d="M555.6257,297.4076c-.1272-142.4816-115.7345-257.8825-258.216-257.7553-142.4815.1272-257.8825,115.7344-257.7553,258.216.1272,142.4816,115.7345,257.8825,258.216,257.7553,142.3016-.1271,257.6282-115.4537,257.7553-257.7553v-.4607ZM481.9155,297.4076c-.1272,101.7725-82.7333,184.1722-184.5057,184.045-101.7725-.1271-184.1722-82.7332-184.045-184.5057.1272-101.7725,82.7333-184.1722,184.5057-184.045,101.5926.127,183.918,82.4523,184.045,184.045v.4607Z"/>
    </clipPath>
  </defs>
  <g>
    <path class="e" d="M555.6257,297.4076c-.1272-142.4816-115.7345-257.8825-258.216-257.7553-142.4815.1272-257.8825,115.7344-257.7553,258.216.1272,142.4816,115.7345,257.8825,258.216,257.7553,142.3016-.1271,257.6282-115.4537,257.7553-257.7553v-.4607ZM481.9155,297.4076c-.1272,101.7725-82.7333,184.1722-184.5057,184.045-101.7725-.1271-184.1722-82.7332-184.045-184.5057.1272-101.7725,82.7333-184.1722,184.5057-184.045,101.5926.127,183.918,82.4523,184.045,184.045v.4607Z"/>
    <g class="f">
      <rect class="e" x="39.6542" y="39.4219" width="515.9715" height="515.9715"/>
    </g>
  </g>
  <path class="e" d="M365.8921,391.8039c-17.628,17.2274-41.584,27.3868-68.2521,27.3868s-50.6241-10.6014-68.2521-27.3868c-17.628-17.2274-28.0244-40.6388-28.0244-66.7008,0-37.105,51.0762-90.7103,84.9765-139.742,1.3968-1.9715,2.7401-3.9429,4.0484-5.8788,3.4768-5.1437,11.0265-5.1437,14.5033,0,1.3083,1.9359,2.6516,3.9074,4.0484,5.8788,33.9003,49.4733,84.9765,102.637,84.9765,139.742,0,26.062-10.8485,49.4733-28.0244,66.7008Z"/>
</svg>