<?xml version="1.0" encoding="UTF-8"?><svg id="a" xmlns="http://www.w3.org/2000/svg" viewBox="0 0 261.783 109.076"><defs><style>.b{fill:#fff;}.c{fill:#e20613;}</style></defs><path class="c" d="M32.741,24.909h186.907v41.143c0,9.695-7.871,17.565-17.565,17.565H15.176v-41.143c0-9.695,7.871-17.565,17.565-17.565Z"/><path class="b" d="M66.802,34.64v34.742h-8.848v-21.679h-.093l-11.942,19.819c-.696,1.155-1.945,1.86-3.293,1.86h-8.482l23.856-34.742h8.801Z"/><path class="b" d="M174.926,42.423v23.115c0,2.123-1.721,3.845-3.845,3.845h-5.049v-30.898c0-2.123,1.721-3.845,3.845-3.845h5.049v7.782Z"/><path class="b" d="M182.704,34.64h5.003v26.914h12.084v7.829h-20.931v-30.898c0-2.123,1.721-3.845,3.845-3.845Z"/><path class="b" d="M115.805,57.57c1.358-.216,2.571-.656,3.636-1.32,1.065-.664,1.969-1.482,2.71-2.455.741-.973,1.304-2.069,1.691-3.289.386-1.22.579-2.493.579-3.822,0-1.822-.356-3.567-1.066-5.234-.711-1.668-1.776-3.088-3.196-4.262-.772-.586-1.591-1.05-2.455-1.39-.865-.34-1.76-.586-2.687-.741-.926-.154-1.861-.247-2.802-.278-.943-.03-1.876-.046-2.803-.046h-15.756c.081.063.166.121.246.186,1.761,1.413,3.085,3.161,3.935,5.196.318.763.573,1.549.767,2.353h11.642c.741,0,1.459.086,2.154.255.695.17,1.304.44,1.83.811.525.37.942.857,1.251,1.459.308.602.463,1.336.463,2.2,0,.896-.147,1.652-.44,2.27-.294.618-.703,1.128-1.228,1.529-.525.402-1.143.688-1.853.857-.711.17-1.467.255-2.27.255h-7.458l10.388,14.512c1.243,1.736,3.247,2.766,5.382,2.766h6.696l-9.357-11.812Z"/><path class="b" d="M95.579,42.469c-.126-.415-.272-.825-.44-1.227-.664-1.59-1.691-2.942-3.08-4.053-.711-.586-1.506-1.057-2.386-1.413-.88-.355-1.783-.61-2.71-.765-.828-.138-1.671-.226-2.524-.278-.101-.006-.2-.018-.301-.023-.957-.046-1.884-.069-2.779-.069h-11.349v34.742h4.679c2.123,0,3.845-1.721,3.845-3.845v-23.115h3.243c.444,0,.877.019,1.305.046.286.019.571.039.849.069.695.078,1.32.255,1.876.533.556.278,1.003.688,1.343,1.228.34.541.51,1.274.51,2.2,0,.896-.155,1.614-.463,2.154-.309.541-.718.966-1.228,1.274-.51.309-1.104.518-1.783.625-.68.109-1.375.162-2.085.162h-1.343v7.782h1.621c.957,0,1.883-.03,2.779-.093.895-.062,1.76-.2,2.594-.417.834-.216,1.644-.525,2.432-.926.787-.401,1.552-.942,2.293-1.621.617-.525,1.158-1.15,1.621-1.876.463-.725.841-1.49,1.135-2.293.293-.803.517-1.629.672-2.478.154-.849.232-1.675.232-2.478,0-1.337-.186-2.619-.556-3.845Z"/><path class="b" d="M161.618,45.133c-.926-2.115-2.193-3.953-3.798-5.512-1.606-1.559-3.482-2.779-5.628-3.659-2.147-.88-4.44-1.32-6.879-1.32-2.903,0-5.552.572-7.945,1.714-2.394,1.143-4.455,2.857-6.184,5.142-.958,1.174-1.684,2.409-2.177,3.706-.896,2.255-1.343,4.632-1.343,7.134,0,2.409.47,4.655,1.413,6.74.942,2.085,2.215,3.891,3.822,5.42,1.605,1.529,3.474,2.726,5.605,3.59,2.131.865,4.385,1.297,6.763,1.297,2.439,0,4.74-.44,6.902-1.32,2.161-.88,4.045-2.1,5.652-3.659,1.605-1.559,2.872-3.397,3.798-5.512.926-2.115,1.39-4.408,1.39-6.879s-.463-4.763-1.39-6.879ZM150.442,58.115c-1.258,1.229-2.966,1.954-4.869,1.954s-3.611-.756-4.869-1.954c-1.258-1.229-1.999-2.899-1.999-4.758,0-2.647,3.644-6.471,6.062-9.969.1-.141.195-.281.289-.419.248-.367.787-.367,1.035,0,.093.138.189.279.289.419,2.418,3.529,6.062,7.322,6.062,9.969,0,1.859-.774,3.529-1.999,4.758Z"/><path class="b" d="M124.949,76.359l1.044-4.022h.949l-.83,3.198h1.507l-.148.824h-2.522Z"/><path class="b" d="M134.681,75.533c-.095.195-.219.361-.372.497-.153.136-.336.242-.548.318s-.456.114-.733.114c-.242,0-.461-.029-.656-.088-.195-.059-.362-.142-.5-.25-.138-.108-.244-.24-.318-.395-.074-.155-.111-.329-.111-.523,0-.053.003-.11.009-.17.006-.061.021-.117.029-.174l.768-2.524h.937l-.757,2.439c-.008.038-.021.076-.023.117-.002.042-.003.08-.003.114,0,.083.012.163.037.239.024.076.063.143.116.202s.123.105.21.139c.087.034.191.051.312.051.159,0,.291-.025.395-.077.104-.051.189-.117.256-.199s.116-.172.15-.273c.034-.1.065-.196.096-.299l.755-2.453h.932l-.768,2.547c-.042.239-.119.453-.213.648Z"/><path class="b" d="M141.413,72.338c.14,0,.28.015.42.046s.266.08.378.15c.112.07.203.161.273.273.07.112.105.249.105.412,0,.273-.08.496-.239.67-.159.174-.435.312-.953.369h0c.205.034.376.126.514.276s.207.344.207.582c0,.205-.043.384-.128.54-.085.155-.204.285-.355.389-.152.104-.333.183-.545.236s-.443.079-.693.079h-1.602l1.044-4.022h1.573ZM140.189,74.638l-.246.96h.437c.106,0,.206-.009.301-.028.095-.019.179-.049.253-.091.074-.042.132-.099.176-.17s.065-.159.065-.261c0-.129-.049-.229-.148-.301-.098-.072-.239-.108-.42-.108h-.418ZM140.639,72.907l-.219.842h.601c.067,0,.137-.007.209-.022.072-.015.138-.041.198-.078.059-.037.109-.087.148-.15.039-.063.059-.14.059-.233,0-.129-.05-.222-.151-.277-.1-.055-.227-.083-.379-.083h-.466Z"/><path class="b" d="M149.306,76.359h-1.068l-.42-1.619-.464-.002-.412,1.58c-.006.024-.028.041-.053.041h-.906l1.044-4.022h1.375c.443,0,.789.094,1.037.281s.372.45.372.787c0,.326-.069.649-.242.859-.144.174-.412.362-.825.362l.562,1.732ZM148.007,74.059c.254,0,.451-.041.591-.124.14-.083.21-.215.21-.395,0-.166-.059-.278-.176-.339-.117-.06-.275-.09-.472-.09h-.385l-.249.949h.48Z"/><path class="b" d="M153.114,76.359l1.044-4.022h.949l-1.044,4.022h-.949Z"/><path class="b" d="M161.96,75.797c-.08.087-.171.171-.276.253-.104.081-.224.153-.358.216-.135.062-.282.112-.443.148-.161.036-.338.054-.531.054-.284,0-.54-.042-.767-.125-.227-.083-.42-.202-.579-.355s-.282-.338-.369-.554-.131-.454-.131-.716c0-.345.092-.668.214-.971.121-.303.457-.663.692-.867.265-.23.58-.398.884-.494.331-.105.595-.155.936-.155.318,0,.604.056.858.168s.445.255.574.429l-.622.557c-.01.009-.024.01-.036.003l-.327-.196c-.127-.076-.285-.114-.474-.114-.201,0-.384.019-.56.077-.18.06-.408.228-.535.338-.136.117-.27.255-.43.498-.05.076-.091.161-.113.25-.069.273-.064.525.017.754.044.123.107.23.19.321.083.091.186.163.31.216.123.053.264.079.423.079.178,0,.346-.038.505-.114.159-.076.299-.184.42-.324l.528.625Z"/><path class="b" d="M168.34,76.359l-.084-.801h-1.556l-.576.801h-1.079l2.896-4.022h.937l.41,4.022h-.949ZM168.067,73.677l-.808,1.12h.922l-.114-1.12Z"/><path class="b" d="M175.704,76.359l-1.005-2.67h0l-.754,2.67h-.853l1.044-4.022h1.062l.862,2.653h0l.688-2.653h.949l-1.044,4.022h-.949Z"/><path class="b" d="M183.389,73.15l-.902,3.209h-.943l.896-3.209h-1.125l.148-.812h3.169l-.142.812h-1.102Z"/><path class="b" d="M190.457,73.314s0,0,0,0c-.076-.102-.17-.18-.284-.232-.114-.053-.24-.079-.38-.079-.064,0-.133.008-.205.025-.072.017-.137.046-.196.085-.059.04-.108.09-.148.15-.04.061-.06.134-.06.222,0,.114.045.204.134.27.089.066.367.312.504.386.136.074.252.158.347.253.095.095.167.202.216.321.049.119.074.255.074.406,0,.242-.05.449-.15.619-.1.17-.23.31-.389.417-.159.108-.337.187-.534.236s-.392.074-.585.074c-.144,0-.288-.013-.432-.04-.144-.027-.282-.065-.415-.116-.132-.051-.255-.116-.369-.196-.114-.08-.21-.17-.29-.273l.683-.555c.009-.007.02-.005.027.004.079.114.193.207.341.279.155.076.312.114.471.114.083,0,.164-.008.241-.026.078-.017.147-.045.207-.085.061-.04.109-.091.145-.153.058-.101.069-.233.034-.398-.114-.191-.32-.246-.585-.397-.132-.075-.273-.184-.348-.276-.083-.102-.191-.293-.226-.401-.039-.12-.065-.22-.065-.383,0-.205.043-.389.128-.554s.202-.305.349-.42.32-.205.517-.267.407-.094.631-.094c.117,0,.237.011.358.034.121.023.238.056.349.099.112.044.215.098.309.162.095.064.174.138.239.222l-.641.568Z"/><path class="c" d="M235.639,37.526l-.18-.21h0l-.147-.172c.359-.075.681-.25.936-.495.416-.578.442-1.469.057-2.073-.312-.384-.77-.645-1.289-.699.027-.021-2.613-.007-2.68-.011v5.091h.942v-1.693h.901l.178.203h0c.104.119,1.198,1.365,1.333,1.52h1.204l-1.255-1.461ZM233.278,36.366v-1.637h1.535c.452,0,.819.367.819.818s-.367.819-.819.819h-1.535Z"/><path class="c" d="M234.276,31.354c-2.841,0-5.143,2.303-5.143,5.143.271,6.822,10.016,6.82,10.286,0,0-2.841-2.303-5.143-5.143-5.143ZM234.276,40.938c-2.471,0-4.474-2.003-4.474-4.474.236-5.935,8.714-5.933,8.949,0,0,2.471-2.003,4.474-4.474,4.474Z"/><ellipse class="c" cx="232.784" cy="34.27" rx=".046" ry=".064"/></svg>