<?xml version="1.0" encoding="UTF-8"?>
<svg id="e" data-name="TEXTO" xmlns="http://www.w3.org/2000/svg" xmlns:xlink="http://www.w3.org/1999/xlink" viewBox="0 0 100 100">
  <defs>
    <style>
      .i {
        clip-path: url(#f);
      }

      .j {
        stroke: #000;
        stroke-miterlimit: 10;
        stroke-width: 4.8979px;
      }

      .j, .k {
        fill: none;
      }
    </style>
    <clipPath id="f">
      <circle class="k" cx="51.5324" cy="50.2666" r="26.3053"/>
    </clipPath>
  </defs>
  <path class="j" d="M86.8054,50.2666c0,19.4807-15.7923,35.273-35.273,35.273-6.2535,0-12.1255-1.6296-17.2186-4.4839h-13.5705v-13.5705c-2.8543-5.0931-4.4839-10.9651-4.4839-17.2186,0-19.4807,15.7923-35.273,35.273-35.273s35.273,15.7923,35.273,35.273Z"/>
  <g class="i">
    <path class="j" d="M44.0593,80.9661v-14.9193c0-2.7902-1.3099-5.4071-3.5141-7.1178-4.2274-3.281-6.9482-8.4105-6.9482-14.1761,0-7.2404,4.2922-13.475,10.4693-16.3076h1.4876v13.2003c0,3.3523,2.7434,6.1595,6.095,6.0955,3.248-.0622,5.8619-2.7145,5.8619-5.9774v-13.3184h1.4876c6.1771,2.8326,10.4693,9.0674,10.4693,16.3076,0,5.7655-2.7208,10.8952-6.9482,14.176-2.2043,1.7109-3.5141,4.3277-3.5141,7.1178v14.9194"/>
  </g>
</svg>