<?xml version="1.0" encoding="UTF-8"?>
<svg id="e" data-name="TEXTO" xmlns="http://www.w3.org/2000/svg" viewBox="0 0 100 100">
  <defs>
    <style>
      .h {
        fill-rule: evenodd;
      }
    </style>
  </defs>
  <path class="h" d="M65.3445,66.0624H29.044c-1.1642,0-2.109-.9427-2.109-2.109v-2.7924c0-7.3331,5.9453-13.2763,13.2784-13.2763h13.9618c7.3331,0,13.2784,5.9432,13.2784,13.2763v2.7924c.012.1106.0848.9036-.5183,1.533-.6368.6646-1.491.5868-1.5907.576ZM63.2355,61.8444v-.6833c0-5.0026-4.0578-9.0583-9.0604-9.0583h-13.9618c-5.0026,0-9.0604,4.0557-9.0604,9.0583v.6833h32.0825Z"/>
  <path class="h" d="M47.1937,24.4383c-6.0678,0-10.9953,4.9253-10.9953,10.9953s4.9275,10.9953,10.9953,10.9953,10.9953-4.9275,10.9953-10.9953-4.9275-10.9953-10.9953-10.9953ZM47.1937,28.8755c3.6185,0,6.5581,2.9374,6.5581,6.5581,0,3.6185-2.9396,6.5581-6.5581,6.5581s-6.5581-2.9396-6.5581-6.5581c0-3.6207,2.9396-6.5581,6.5581-6.5581h0Z"/>
  <path class="h" d="M27.0368,76.5904h-1.2866c-5.2632,0-9.5305-4.2673-9.5305-9.5305V24.173c0-5.2632,4.2673-9.5305,9.5305-9.5305h42.887c5.2632,0,9.5305,4.2673,9.5305,9.5305v42.887c0,5.2632-4.2673,9.5305-9.5305,9.5305h-20.6835l-7.9246,7.3742c-1.8251,1.6988-4.4031,2.3302-6.8071,1.6678-2.4064-.6647-4.2935-2.528-4.9892-4.9249l-1.1961-4.1172ZM31.1134,73.5431c-.2954-1.0174-1.2294-1.7179-2.2897-1.7179h-3.0736c-2.6328,0-4.7652-2.1324-4.7652-4.7652V24.173c0-2.6328,2.1324-4.7652,4.7652-4.7652h42.887c2.6328,0,4.7652,2.1324,4.7652,4.7652v42.887c0,2.6328-2.1324,4.7652-4.7652,4.7652h-21.6222c-.6004,0-1.1818.2287-1.6226.6385l-8.6084,8.0127c-.6171.5718-1.4844.7839-2.2945.5623-.8101-.224-1.4462-.853-1.6821-1.6607l-1.694-5.835Z"/>
</svg>