<?xml version="1.0" encoding="UTF-8"?>
<svg id="e" data-name="TEXTO" xmlns="http://www.w3.org/2000/svg" viewBox="0 0 100 100">
  <path d="M84.7552,80.8274l-17.7631-17.7631c4.1883-5.1152,6.7081-11.6468,6.7081-18.7598,0-16.3557-13.3064-29.662-29.662-29.662s-29.662,13.3064-29.662,29.662,13.3064,29.662,29.662,29.662c7.1115,0,13.6431-2.5198,18.7598-6.7081l17.7631,17.7631c.5799.5799,1.3378.8691,2.0971.8691s1.5172-.2892,2.0971-.8691c1.1583-1.1583,1.1583-3.0359,0-4.1942ZM44.0381,68.0342c-13.0839,0-23.7296-10.6457-23.7296-23.7296s10.6457-23.7296,23.7296-23.7296,23.7296,10.6457,23.7296,23.7296-10.6457,23.7296-23.7296,23.7296Z"/>
  <path d="M44.0381,64.623c-11.2034,0-20.3185-9.1151-20.3185-20.3185,0-1.6373,1.3289-2.9662,2.9662-2.9662s2.9662,1.3289,2.9662,2.9662c0,7.9331,6.4545,14.3861,14.3861,14.3861,1.6373,0,2.9662,1.3289,2.9662,2.9662s-1.3289,2.9662-2.9662,2.9662Z"/>
</svg>