<?xml version="1.0" encoding="UTF-8"?>
<svg id="e" data-name="TEXTO" xmlns="http://www.w3.org/2000/svg" viewBox="0 0 100 100">
  <g id="f" data-name="Layer 3">
    <path d="M81.5483,35.4828l-22.4943-19.7376c-5.159-4.6014-12.9489-4.6014-18.1079,0l-22.4943,19.7376c-3.2028,2.8424-5.0264,6.9263-5.005,11.2083v24.065c-.151,7.9234,6.1361,14.4758,14.0589,14.6522h11.2471c1.5529,0,2.8118-1.2589,2.8118-2.8118v-22.4943c.0019-1.5521,1.2596-2.8099,2.8118-2.8118h11.2471c1.5521.0019,2.8099,1.2596,2.8118,2.8118v22.4943c0,1.5529,1.2589,2.8118,2.8118,2.8118h11.2471c7.9228-.1764,14.2099-6.7289,14.0589-14.6522v-24.065c.0214-4.2821-1.8022-8.366-5.005-11.2083ZM80.9297,70.7561c.1536,4.8187-3.6173,8.8549-8.4354,9.0286h-8.4354v-19.6825c-.0053-4.6565-3.7788-8.4301-8.4354-8.4354h-11.2471c-4.6565.0053-8.4301,3.7788-8.4354,8.4354v19.6825h-8.4354c-4.818-.1738-8.589-4.2099-8.4354-9.0286v-24.065c-.022-2.6626,1.1035-5.2058,3.089-6.98l22.4943-19.7387c3.0427-2.7241,7.6472-2.7241,10.6899,0l22.4943,19.7387c1.9866,1.7737,3.1131,4.3169,3.0918,6.98v24.065Z"/>
  </g>
</svg>