<?xml version="1.0" encoding="UTF-8"?>
<svg id="c" data-name="Header y Footer" xmlns="http://www.w3.org/2000/svg" viewBox="0 0 100 100">
  <path d="M91.9332,16.3346c0-4.7613-3.8742-8.6355-8.6355-8.6355h-30.9363l-2.5379,2.5379-2.5365-2.5379h-30.9335c-4.7613,0-8.6355,3.8742-8.6355,8.6355v30.9329l2.5379,2.5379-2.5379,2.5379v30.9356c0,4.7613,3.8742,8.6355,8.6355,8.6355h30.9335l2.5365-2.5379,2.5379,2.5379h30.9363c4.7613,0,8.6355-3.8742,8.6355-8.6355v-30.9356l-2.5379-2.5379,2.5379-2.5379v-30.9329ZM87.7143,45.5206l-4.2848,4.2848,4.2848,4.2848v29.1887c0,2.4349-1.981,4.4166-4.4166,4.4166h-29.1894l-4.2848-4.2848-4.2848,4.2848h-29.1853c-2.4356,0-4.4166-1.9817-4.4166-4.4166v-29.1887l4.2848-4.2848-4.2848-4.2848v-29.186c0-2.4349,1.981-4.4166,4.4166-4.4166h29.1853l4.2848,4.2848,4.2848-4.2848h29.1894c2.4356,0,4.4166,1.9817,4.4166,4.4166v29.186Z"/>
  <polygon points="24.8711 25.128 27.4392 25.128 27.4392 28.2434 29.2139 28.2434 29.2139 20.9023 27.4392 20.9023 27.4392 23.7464 24.8711 23.7464 24.8711 20.9023 23.0961 20.9023 23.0961 28.2434 24.8711 28.2434 24.8711 25.128"/>
  <polygon points="46.0791 25.128 48.6472 25.128 48.6472 28.2434 50.4219 28.2434 50.4219 20.9023 48.6472 20.9023 48.6472 23.7464 46.0791 23.7464 46.0791 20.9023 44.304 20.9023 44.304 28.2434 46.0791 28.2434 46.0791 25.128"/>
  <polygon points="33.073 28.2434 35.558 28.2434 35.558 26.8618 33.073 26.8618 33.073 25.128 35.3427 25.128 35.3427 23.7464 33.073 23.7464 33.073 22.2845 35.558 22.2845 35.558 20.9023 33.073 20.9023 32.0615 20.9023 31.2983 20.9023 31.2983 28.2434 32.0615 28.2434 33.073 28.2434"/>
  <polygon points="37.1222 69.1713 36.0699 69.1713 36.0699 79.2962 37.1222 79.2962 38.5175 79.2962 41.9447 79.2962 41.9447 77.39 38.5175 77.39 38.5175 74.9991 41.6477 74.9991 41.6477 73.0929 38.5175 73.0929 38.5175 71.0775 41.9447 71.0775 41.9447 69.1713 38.5175 69.1713 37.1222 69.1713"/>
  <polygon points="71.7428 23.149 74.5822 28.2434 75.2548 28.2434 76.5405 28.2434 76.8334 28.2434 76.8334 20.9023 75.2548 20.9023 75.2548 25.9293 72.4621 20.9023 71.7428 20.9023 70.491 20.9023 70.1645 20.9023 70.1645 28.2434 71.7428 28.2434 71.7428 23.149"/>
  <polygon points="65.8365 28.2434 68.3215 28.2434 68.3215 26.8618 65.8365 26.8618 65.8365 25.128 68.1062 25.128 68.1062 23.7464 65.8365 23.7464 65.8365 22.2845 68.3215 22.2845 68.3215 20.9023 65.8365 20.9023 64.825 20.9023 64.0618 20.9023 64.0618 28.2434 64.825 28.2434 65.8365 28.2434"/>
  <path d="M55.3552,28.3457h.8099c1.7314,0,3.1477-1.4166,3.1477-3.1477v-1.2614c0-1.7311-1.4162-3.1477-3.1477-3.1477h-.8099c-1.7311,0-3.1477,1.4166-3.1477,3.1477v1.2614c0,1.7311,1.4166,3.1477,3.1477,3.1477ZM54.1227,23.7993c0-.8316.6805-1.5127,1.5124-1.5127h.1545c.8319,0,1.5127.6812,1.5127,1.5127v1.4908c0,.8322-.6808,1.5127-1.5127,1.5127h-.1545c-.8319,0-1.5124-.6805-1.5124-1.5127v-1.4908Z"/>
  <path d="M40.298,28.3471h.8336c.4786,0,.9332-.0989,1.34-.2808v-1.8341c-.3279.399-.8103.6523-1.3476.6523h-.4625c-.9885,0-1.7946-.8501-1.7946-1.8938v-.7588c0-1.0396.8061-1.889,1.7946-1.889h.4625c.399,0,.7704.1421,1.0712.379l.6324-1.3555c-.4944-.2925-1.0753-.4628-1.6961-.4628h-.8336c-1.775,0-3.2294,1.3953-3.2294,3.0989v1.2415c0,1.7077,1.4544,3.103,3.2294,3.103Z"/>
  <path d="M72.9647,69.0903h-1.1028c-2.3563,0-4.2841,1.9282-4.2841,4.2841v1.7167c0,2.3566,1.9278,4.2848,4.2841,4.2848h1.1028c2.3559,0,4.2841-1.9282,4.2841-4.2848v-1.7167c0-2.3559-1.9282-4.2841-4.2841-4.2841ZM74.5118,75.2167c0,1.1323-.9263,2.0586-2.0586,2.0586h-.2101c-1.1323,0-2.059-.9263-2.059-2.0586v-2.0291c0-1.1323.9267-2.0586,2.059-2.0586h.2101c1.1323,0,2.0586.9263,2.0586,2.0586v2.0291Z"/>
  <path d="M63.7487,71.0789h.6293c.5435,0,1.0492.1971,1.4578.5246l.8611-1.8739c-.6726-.4044-1.4633-.6393-2.3079-.6393h-1.1354c-2.4153,0-4.3953,1.9288-4.3953,4.2827v1.7153c0,2.3601,1.98,4.2889,4.3953,4.2889h1.1354c.651,0,1.2696-.1366,1.8238-.388v-2.5352c-.4467.5521-1.1031.9016-1.8348.9016h-.6293c-1.3448,0-2.4425-1.1742-2.4425-2.6169v-1.0485c0-1.4365,1.0976-2.6114,2.4425-2.6114Z"/>
  <path d="M31.4971,69.1713h-1.007l-2.2808,7.5224-2.3113-7.5224h-3.2877v10.1427h2.1805v-7.0878c.5971,1.9824,2.1949,7.0878,2.1949,7.0878h2.2056l2.3058-7.3034v7.3034h2.1808v-10.1427h-2.1808Z"/>
  <polygon points="39.2512 68.4387 41.2793 66.9548 38.73 66.9548 37.5294 68.4387 39.2512 68.4387"/>
  <polygon points="52.1595 69.1713 49.4856 69.1713 47.4953 72.4433 45.505 69.1713 42.8311 69.1713 46.0029 74.1243 42.6499 79.2962 45.4147 79.2962 47.4915 75.9089 49.568 79.2962 52.4836 79.2962 48.9232 74.2252 52.1595 69.1713"/>
  <polygon points="53.9922 69.1713 52.8427 69.1713 52.8427 70.5955 53.9922 71.1915 53.9922 77.276 52.8427 77.8721 52.8427 79.2962 53.9922 79.2962 56.4402 79.2962 57.5896 79.2962 57.5896 77.8721 56.4402 77.276 56.4402 71.1915 57.5896 70.5955 57.5896 69.1713 56.4402 69.1713 53.9922 69.1713"/>
  <polygon points="52.4362 53.5051 48.5627 50.2201 46.2068 50.6788 50.7209 54.7535 52.4362 53.5051"/>
  <polygon points="62.9738 62.4338 54.8986 55.5919 53.1239 56.9199 59.2345 62.4338 62.9738 62.4338"/>
  <polygon points="57.535 49.2478 52.9382 47.0738 50.6258 49.1805 54.5113 52.0501 57.535 49.2478"/>
  <path d="M73.8275,62.4338v-5.4823l-13.3203-6.2967c-.0158.0158-.0199.024-.0199.024,0,0-1.5611,1.8416-3.4227,3.2568l11.5058,8.4982h5.2571Z"/>
  <path d="M54.1161,45.145l5.4188,1.9247c.091-.1181,1.8815-2.553,2.6917-3.7821h-7.5217l-.5888,1.8574Z"/>
  <path d="M77.1359,43.2875h-11.2095s-1.7589,3.1738-3.2967,4.8849l14.5061,5.1541v-10.039Z"/>
  <polygon points="71.6415 39.228 72.8511 35.8564 63.7682 35.8564 62.5549 39.228 62.3177 39.8885 71.4046 39.8885 71.6415 39.228"/>
  <polygon points="46.2662 36.149 41.4994 38.1252 37.2506 39.8885 35.1714 40.7496 35.535 41.0778 37.7327 43.0623 38.2109 43.4928 40.1676 42.754 41.9066 42.1017 47.772 39.8885 49.3019 39.8885 51.2503 39.8885 59.3729 39.8885 59.6101 39.228 60.8235 35.8564 46.9776 35.8564 46.2662 36.149"/>
  <path d="M51.4402,43.2635h-2.5492c-.688,1.0595-1.8815,1.7592-3.2373,1.7592-.5771,0-1.1227-.127-1.6126-.3523l-2.5575.9606c1.0554,1.2291,2.6207,2.0078,4.3675,2.0078,2.7037,0,4.9725-1.8615,5.5891-4.3754Z"/>
  <path d="M25.7765,55.6372c.2266.16.5425.0446.6139-.2232.1473-.5535.5068-1.363,1.3733-1.6501h4.7809l4.7493,3.7162h10.2728v-1.269l-12.6659-11.4501h-7.1372s-3.4968.3323-4.7658,4.5018c-1.0001,3.2871,1.6236,5.5599,2.7786,6.3743Z"/>
</svg>