<?xml version="1.0" encoding="UTF-8"?>
<svg id="c" data-name="Header y Footer" xmlns="http://www.w3.org/2000/svg" viewBox="0 0 100 100">
  <defs>
    <style>
      .e {
        stroke-width: 4.2954px;
      }

      .e, .f {
        fill: none;
      }

      .e, .f, .g {
        stroke: #000;
        stroke-linecap: round;
        stroke-miterlimit: 10;
      }

      .f, .g {
        stroke-width: 1.7958px;
      }

      .g {
        fill: #fff;
      }
    </style>
  </defs>
  <g>
    <circle class="e" cx="51.7078" cy="50.4346" r="41.4798" transform="translate(-20.5178 51.3348) rotate(-45)"/>
    <g>
      <path d="M35.0913,22.8884c-.9564.646-1.9967.3985-2.7056-.6544s-.5411-2.1141.4069-2.7517c.6565-.4425,1.3087-.4803,1.8687-.0776l-.3545.5663c-.3922-.3041-.7592-.3188-1.1703-.0419-.6166.4153-.7194,1.1389-.1909,1.9275.5285.7823,1.2102.9837,1.8373.5621.4216-.2831.5852-.6984.4279-1.206l.625-.172c.2034.7446-.0965,1.4136-.7446,1.8478Z"/>
      <path d="M40.5863,19.304l.2307.5055-2.7098,1.2269-1.6443-3.6347,2.6322-1.1913.2286.5076-2.0407.9249.4719,1.0445,1.5982-.7215.2223.495-1.5961.7236.4887,1.078,2.1183-.9585Z"/>
      <path d="M43.6862,17.2339l-.8285.2244.4153,1.5395-.6166.1657-1.0382-3.8486,1.5688-.4237c.8285-.2223,1.4639.0692,1.659.7928.1489.5537-.0503,1.0193-.5243,1.3046l1.4786,1.3276-.7173.193-1.3968-1.2752ZM42.7193,16.9382l.8977-.2412c.5076-.1384.6963-.4069.5831-.8326-.1154-.4258-.4153-.5642-.9228-.4279l-.8977.2412.3398,1.2605Z"/>
      <path d="M50.1188,14.3396l-1.357.1405.3545,3.4061-.6418.0671-.3545-3.4061-1.3549.1405-.0566-.5516,3.3516-.3482.0587.5516Z"/>
      <path d="M52.9984,17.7687l-.6439-.0147.086-3.9787.646.0126-.0881,3.9808Z"/>
      <path d="M56.4171,14.6101l-.1699,1.1389,1.7303.258-.0839.5537-1.7282-.2559-.2517,1.6926-.6376-.0944.5831-3.9367,2.8461.4237-.0818.5474-2.2064-.3272Z"/>
      <path d="M60.6034,18.9831l-.6208-.1741,1.0822-3.8298.6208.1762-1.0822,3.8277Z"/>
      <path d="M65.7545,20.3296l-.2181.5139-2.7412-1.1619,1.5583-3.6767,2.6636,1.1284-.2181.5118-2.0659-.8746-.4488,1.0592,1.615.6837-.2118.5013-1.615-.6837-.4635,1.0906,2.1456.9082Z"/>
      <path d="M71.1657,21.9194c-.6963,1.078-1.6968,1.2815-2.7475.6019l-1.185-.7634,2.1645-3.3516,1.1829.7634c1.0508.6774,1.2794,1.6737.5852,2.7496ZM70.5952,21.5523c.4992-.7718.3922-1.466-.3125-1.9212l-.6397-.4132-1.5667,2.4287.6397.4132c.7047.4551,1.3822.2664,1.8792-.5076Z"/>
    </g>
    <g>
      <path d="M33.7741,78.4345l-1.4094,1.5101-.3482-.3272.3272-.388c-.4069.1091-.8473-.0126-1.2773-.4132-.818-.7655-.8243-1.831.0503-2.7685.8683-.9291,1.9526-.992,2.7937-.2076.6061.5663.776,1.1284.56,1.8142l-.6292-.1972c.1867-.43.0608-.8536-.3062-1.1976-.5474-.5118-1.2731-.4446-1.9212.2496-.6523.7005-.711,1.3905-.1133,1.9484.4425.4132.9899.5097,1.4094.0587l.0797-.0839-.8935-.8347.3628-.388,1.315,1.2249Z"/>
      <path d="M38.038,81.9308c-.5558.8998-1.3234,1.0508-2.2232.495-.9019-.5579-1.1095-1.3108-.5537-2.2127l1.2941-2.0932.5558.344-1.2542,2.026c-.3964.6439-.3188,1.1032.2517,1.4556.5726.3545,1.0193.2181,1.4157-.4258l1.2521-2.026.5558.3419-1.2941,2.0953Z"/>
      <path d="M42.109,84.2421l-1.5667-.6019-.7299.8389-.6187-.237,2.8314-3.1817.7215.2769-.0252,4.2576-.6376-.2433.0252-1.1095ZM42.1174,83.6821l.0294-1.3591.0378-.5998-.0168-.0084-.3607.4656-.9019,1.0361,1.2123.4656Z"/>
      <path d="M46.7546,84.9007l-.8431-.1531-.2852,1.5646-.6292-.1133.7131-3.9157,1.5961.2915c.8431.1531,1.2899.6879,1.1556,1.4241-.1028.5621-.4824.8977-1.0298.9522l.7634,1.8289-.7299-.1321-.711-1.7471ZM46.008,84.219l.9123.1657c.518.0944.8033-.0671.883-.5013.0797-.4321-.1321-.6858-.6481-.7802l-.9144-.1657-.2328,1.2815Z"/>
      <path d="M52.8516,85.9095l-1.6758.0273-.3628,1.0487-.6628.0105,1.4346-4.0038.7718-.0126,1.5667,3.9556-.6816.0105-.3901-1.0361ZM52.6503,85.3872l-.4782-1.271-.1909-.5705h-.0189l-.1594.5642-.4488,1.2983,1.2962-.021Z"/>
      <path d="M59.4981,86.0899l-.7529.1447-1.9904-2.175-.518-.6502h-.0063l.151.6607.4887,2.5273-.581.1112-.7571-3.9137.7488-.1447,1.982,2.1708.5264.6544.0063-.0021-.1531-.6586-.4887-2.5273.5873-.1133.7571,3.9157Z"/>
      <path d="M63.6676,80.9849l-1.2668.5034,1.2668,3.1817-.5998.2391-1.2647-3.1838-1.2668.5055-.2055-.5159,3.1313-1.2458.2055.5159Z"/>
      <path d="M69.3032,80.9786l.2957.4719-2.5147,1.5793-2.1204-3.3746,2.4434-1.5353.2957.4698-1.896,1.1934.6103.9711,1.4828-.9312.2894.4593-1.4828.9312.6292,1.0025,1.9673-1.2374Z"/>
      <path d="M73.4014,77.5327l.3733.4132-2.2085,1.9988-2.6825-2.9636,2.1456-1.9421.3754.4132-1.6674,1.508.7718.8536,1.3025-1.1787.367.4027-1.3025,1.1787.797.8809,1.7282-1.5646Z"/>
    </g>
    <g>
      <path class="g" d="M76.4291,60.786c-3.9455,10.1383-13.8011,17.3235-25.3349,17.3235-11.4841,0-21.3044-7.1234-25.2836-17.1926"/>
      <path class="g" d="M25.0158,41.5243c3.3105-11.274,13.7332-19.5058,26.0784-19.5058,12.3773,0,22.822,8.2746,26.1041,19.5937"/>
      <path class="g" d="M36.0931,41.5851c2.1801-8.2651,7.7263-15.7474,14.5053-19.4091"/>
      <path class="g" d="M49.3804,78.0351c-5.9653-3.657-10.5676-9.7987-12.723-17.1987"/>
      <path class="f" d="M66.2583,41.6395c-2.1801-8.2651-7.7101-15.8018-14.4891-19.4635"/>
      <path class="f" d="M52.9873,78.0351c5.9653-3.657,10.5676-9.7987,12.723-17.1987"/>
      <line class="g" x1="51.0942" y1="41.5307" x2="51.0942" y2="22.0185"/>
      <line class="g" x1="50.9871" y1="78.0077" x2="51.2014" y2="60.8781"/>
      <line class="f" x1="11.5986" y1="41.7394" x2="91.9667" y2="41.7394"/>
      <line class="f" x1="91.3145" y1="60.5767" x2="11.9609" y2="60.5767"/>
      <path class="f" d="M65.6181,26.412c-4.1459,2.8009-9.1439,4.4364-14.5239,4.4364s-10.378-1.6355-14.5239-4.4364"/>
      <path class="f" d="M36.5703,73.7373c4.1459-2.8009,9.1439-4.4364,14.5239-4.4364s10.378,1.6355,14.5239,4.4364"/>
    </g>
  </g>
  <g>
    <path d="M17.2282,56.7878v-1.9442h1.292v-7.0429h-1.292v-1.9442h5.2434v1.9442h-1.2752v7.0429h1.2752v1.9442h-5.2434Z"/>
    <path d="M28.1595,56.9472c-.7865,0-1.508-.1175-2.1666-.3503-.6586-.2349-1.1871-.5998-1.5856-1.099s-.5977-1.1535-.5977-1.961v-.1678c0-.0587.0063-.1195.0168-.1825h2.4539c-.0105.0419-.0168.0818-.0168.1195v.1342c0,.2873.0713.5411.216.7571.1426.2181.3545.388.6376.5097.281.1237.6397.1846,1.0759.1846.4656,0,.8431-.0419,1.1305-.1279.2873-.0839.495-.216.6208-.3901.1279-.1762.193-.3901.193-.646,0-.2873-.1091-.5139-.3272-.6858-.2181-.1678-.5076-.3062-.8683-.4132-.3628-.107-.7613-.2076-1.1955-.302-.4362-.0965-.8683-.216-1.2983-.3586-.4321-.1447-.8264-.3335-1.1871-.5663-.3628-.2328-.6544-.5453-.8767-.9333-.2244-.3859-.3356-.8788-.3356-1.4723,0-.7341.2013-1.3444.6061-1.8331.4027-.4887.9333-.8557,1.594-1.099.6586-.2454,1.3863-.367,2.1833-.367.7739,0,1.4786.1112,2.1099.3335.6334.2244,1.1368.5726,1.5143,1.0445s.5663,1.0801.5663,1.8247v.2076h-2.4224v-.1447c0-.2643-.0671-.4929-.1992-.6837-.1321-.193-.3293-.3398-.5894-.4467s-.5768-.1594-.948-.1594c-.3628,0-.6732.0378-.9333.1112-.2601.0755-.4593.1846-.5977.3272s-.2055.3314-.2055.5663c0,.2957.1112.5306.3335.7005s.5159.3062.8767.4069.7613.1992,1.2039.2936c.4404.0965.8788.2097,1.3129.344.4362.1321.8368.3146,1.2039.5495.367.2328.6586.539.8767.9165.2181.3754.3272.8515.3272,1.4262,0,.8704-.2055,1.5709-.6145,2.1036-.409.5306-.969.9186-1.68,1.1619-.7131.2454-1.5143.367-2.4078.367Z"/>
    <path d="M38.835,56.9472c-.6376,0-1.2353-.1112-1.7911-.3356-.5579-.2223-1.0508-.5453-1.4744-.9711-.4258-.4258-.7571-.9459-.9962-1.5625-.2391-.6145-.3586-1.3108-.3586-2.0869v-1.3234c0-.7739.1195-1.4702.3586-2.0869s.5705-1.1368.9962-1.5625c.4237-.4237.9165-.7488,1.4744-.9711.5558-.2223,1.1535-.3356,1.7911-.3356h.6544c.6376,0,1.2353.1133,1.7932.3356s1.0487.5474,1.4723.9711c.4258.4258.7571.9459.9962,1.5625s.3586,1.3129.3586,2.0869v1.3234c0,.776-.1195,1.4723-.3586,2.0869-.2391.6166-.5705,1.1368-.9962,1.5625-.4237.4258-.9144.7488-1.4723.9711-.5579.2244-1.1556.3356-1.7932.3356h-.6544ZM39.1538,54.94c.3083,0,.5894-.0482.8452-.1447.2559-.0944.4803-.2412.6774-.4383.1972-.1951.3482-.4425.453-.7404.107-.2978.1594-.6544.1594-1.0676v-2.4392c0-.4132-.0524-.7697-.1594-1.0676-.1049-.2957-.2559-.5432-.453-.7404s-.4216-.3419-.6774-.4383c-.2559-.0944-.5306-.1426-.8285-.1426s-.5768.0482-.8368.1426c-.2601.0965-.4887.2412-.6858.4383s-.3482.4446-.453.7404c-.107.2978-.1594.6544-.1594,1.0676v2.4392c0,.4132.0524.7697.1594,1.0676.1049.2978.2559.5453.453.7404.1972.1972.4237.344.6774.4383.2559.0965.5306.1447.8285.1447Z"/>
    <path d="M53.0047,56.9472c-.797,0-1.4891-.1468-2.0722-.4383-.5852-.2915-1.0361-.7089-1.3549-1.25-.3188-.5432-.4782-1.1913-.4782-1.9442h2.2798c0,.5097.1447.9186.4383,1.2269.2915.3083.6712.4614,1.1389.4614.3083,0,.5873-.0692.8368-.2076s.4488-.3293.5977-.5726c.1468-.2454.2223-.5159.2223-.8138v-1.6254c-.2873.3398-.6376.5935-1.0508.7571-.4153.1657-.8033.2475-1.164.2475-.6586,0-1.2542-.13-1.7848-.3901s-.9543-.6439-1.2668-1.1472c-.3146-.5055-.4698-1.1137-.4698-1.8247,0-.7655.1762-1.4262.5327-1.9841s.8452-.9879,1.466-1.292c.6229-.302,1.3318-.453,2.1288-.453.7949,0,1.5059.1615,2.1267.4866.6208.323,1.1074.7739,1.4577,1.3528.3503.581.5264,1.2521.5264,2.0176v3.5361c0,.7655-.1783,1.4367-.5348,2.0156-.3545.581-.841,1.0319-1.4577,1.3549-.6166.3251-1.3234.4866-2.1183.4866ZM52.9712,51.2256c.3628,0,.6628-.0755.9019-.2307.2391-.1531.4216-.3712.5495-.6523.1279-.2831.1909-.604.1909-.9648,0-.3922-.0671-.7278-.1992-1.0046-.1321-.2748-.3209-.4887-.5663-.6376-.2433-.1489-.5369-.2223-.8767-.2223-.3503,0-.6481.0776-.8914.2307-.2454.1552-.43.3733-.5579.6544s-.1909.6082-.1909.9795.0629.6984.1909.9795.3125.4971.5579.646c.2433.1489.5411.2223.8914.2223Z"/>
    <path d="M62.5477,56.9472c-.711,0-1.3591-.1699-1.9442-.5097s-1.0487-.8033-1.3947-1.3863c-.344-.5852-.518-1.2374-.518-1.961v-3.5361c0-.7341.1741-1.3926.518-1.9778.3461-.5831.8096-1.0424,1.3947-1.378.5852-.3335,1.2332-.5013,1.9442-.5013h.5411c.7236,0,1.3738.1678,1.9526.5013.5789.3356,1.0382.7949,1.378,1.378.3398.5852.5097,1.2437.5097,1.9778v3.5361c0,.7236-.1699,1.3759-.5097,1.961-.3398.5831-.7991,1.0466-1.378,1.3863s-1.229.5097-1.9526.5097h-.5411ZM62.8035,55.0659c.3062,0,.581-.0734.8201-.2223s.43-.3482.5726-.5977c.1447-.2496.216-.5285.216-.8368v-4.1905c0-.3083-.0713-.5873-.216-.8368-.1426-.2496-.3335-.4488-.5726-.5977s-.5076-.2223-.8054-.2223c-.3083,0-.581.0734-.8201.2223s-.43.3482-.5747.5977c-.1426.2496-.2139.5285-.2139.8368v4.1905c0,.3083.0713.5873.2139.8368.1447.2496.3356.4488.5747.5977s.5076.2223.8054.2223Z"/>
    <path d="M72.3486,56.9472c-.711,0-1.3591-.1699-1.9442-.5097s-1.0487-.8033-1.3947-1.3863c-.344-.5852-.518-1.2374-.518-1.961v-3.5361c0-.7341.1741-1.3926.518-1.9778.3461-.5831.8096-1.0424,1.3947-1.378.5852-.3335,1.2332-.5013,1.9442-.5013h.5411c.7236,0,1.3738.1678,1.9526.5013.5789.3356,1.0382.7949,1.378,1.378.3398.5852.5097,1.2437.5097,1.9778v3.5361c0,.7236-.1699,1.3759-.5097,1.961-.3398.5831-.7991,1.0466-1.378,1.3863s-1.229.5097-1.9526.5097h-.5411ZM72.6044,55.0659c.3062,0,.581-.0734.8201-.2223s.43-.3482.5726-.5977c.1447-.2496.216-.5285.216-.8368v-4.1905c0-.3083-.0713-.5873-.216-.8368-.1426-.2496-.3335-.4488-.5726-.5977s-.5076-.2223-.8054-.2223c-.3083,0-.581.0734-.8201.2223s-.43.3482-.5747.5977c-.1426.2496-.2139.5285-.2139.8368v4.1905c0,.3083.0713.5873.2139.8368.1447.2496.3356.4488.5747.5977s.5076.2223.8054.2223Z"/>
    <path d="M78.7874,56.7878v-1.9757h2.6133v-6.2144h-2.6133v-1.466c.4237-.0336.8851-.1175,1.378-.2559.495-.1384.9879-.3104,1.4828-.518.4929-.2076.9522-.4279,1.378-.6607h.8599v9.1151h2.5504v1.9757h-7.649Z"/>
  </g>
</svg>